HIERARCHY
ROOT Hips
{
	OFFSET 0.00 0.00 0.00
	CHANNELS 6 Xposition Yposition Zposition Xrotation Yrotation Zrotation
	JOINT Spine
	{
		OFFSET 0.00000 1.15266 1.72900
		CHANNELS 3 Xrotation Yrotation Zrotation
		JOINT Spine1
		{
			OFFSET 0.00000 0.40032 2.27031
			CHANNELS 3 Xrotation Yrotation Zrotation
			JOINT Spine2
			{
				OFFSET 0.00000 0.20092 2.29656
				CHANNELS 3 Xrotation Yrotation Zrotation
				JOINT Spine3
				{
					OFFSET 0.00000 0.00000 2.30533
					CHANNELS 3 Xrotation Yrotation Zrotation
					JOINT Neck
					{
						OFFSET 0.00000 -0.86449 6.05149
						CHANNELS 3 Xrotation Yrotation Zrotation
						JOINT Head
						{
							OFFSET 0.00000 -0.55043 3.12167
							CHANNELS 3 Xrotation Yrotation Zrotation
							End Site
							{
								OFFSET 0.00000 0.00000 3.73175
							}
						}
					}
					JOINT RightShoulder
					{
						OFFSET -0.78828 -1.31380 4.25672
						CHANNELS 3 Xrotation Yrotation Zrotation
						JOINT RightArm
						{
							OFFSET -3.91513 0.00000 0.00000
							CHANNELS 3 Xrotation Yrotation Zrotation
							JOINT RightForeArm
							{
								OFFSET -6.91491 0.00000 0.00000
								CHANNELS 3 Xrotation Yrotation Zrotation
								JOINT RightHand
								{
									OFFSET -6.09622 0.00000 0.00000
									CHANNELS 3 Xrotation Yrotation Zrotation
									JOINT RightHandEnd
									{
										OFFSET -1.74995 0.00000 0.00000
										CHANNELS 3 Xrotation Yrotation Zrotation
										End Site
										{
											OFFSET -1.74995 0.00000 0.00000
										}
									}
									JOINT RightHandThumb1
									{
										OFFSET -0.69998 -1.16663 -0.46665
										CHANNELS 3 Yrotation Xrotation Zrotation
										End Site
										{
											OFFSET -1.69032 -0.45292 0.00000
										}
									}
								}
							}
						}
					}
					JOINT LeftShoulder
					{
						OFFSET 0.78828 -1.31380 4.25672
						CHANNELS 3 Xrotation Yrotation Zrotation
						JOINT LeftArm
						{
							OFFSET 3.91513 0.00000 0.00000
							CHANNELS 3 Xrotation Yrotation Zrotation
							JOINT LeftForeArm
							{
								OFFSET 6.91491 0.00000 0.00000
								CHANNELS 3 Xrotation Yrotation Zrotation
								JOINT LeftHand
								{
									OFFSET 6.09622 0.00000 0.00000
									CHANNELS 3 Xrotation Yrotation Zrotation
									JOINT LeftHandEnd
									{
										OFFSET 1.74995 0.00000 0.00000
										CHANNELS 3 Xrotation Yrotation Zrotation
										End Site
										{
											OFFSET 1.74995 0.00000 0.00000
										}
									}
									JOINT LeftHandThumb1
									{
										OFFSET 0.69998 -1.16663 -0.46665
										CHANNELS 3 Yrotation Xrotation Zrotation
										End Site
										{
											OFFSET 1.69032 -0.45292 0.00000
										}
									}
								}
							}
						}
					}
				}
			}
		}
	}
	JOINT RightUpLeg
	{
		OFFSET -2.33857 0.00000 -0.68318
		CHANNELS 3 Xrotation Yrotation Zrotation
		JOINT RightLeg
		{
			OFFSET 0.00000 0.00000 -10.74496
			CHANNELS 3 Xrotation Yrotation Zrotation
			JOINT RightFoot
			{
				OFFSET 0.00000 0.00000 -10.93085
				CHANNELS 3 Xrotation Yrotation Zrotation
				JOINT RightToeBase
				{
					OFFSET 0.00000 -4.08727 -1.48765
					CHANNELS 3 Xrotation Yrotation Zrotation
					End Site
					{
						OFFSET 0.00000 -1.89187 -0.00000
					}
				}
			}
		}
	}
	JOINT LeftUpLeg
	{
		OFFSET 2.33857 0.00000 -0.68318
		CHANNELS 3 Xrotation Yrotation Zrotation
		JOINT LeftLeg
		{
			OFFSET 0.00000 0.00000 -10.74496
			CHANNELS 3 Xrotation Yrotation Zrotation
			JOINT LeftFoot
			{
				OFFSET 0.00000 0.00000 -10.93085
				CHANNELS 3 Xrotation Yrotation Zrotation
				JOINT LeftToeBase
				{
					OFFSET 0.00000 -4.08727 -1.48765
					CHANNELS 3 Xrotation Yrotation Zrotation
					End Site
					{
						OFFSET 0.00000 -1.89187 -0.00000
					}
				}
			}
		}
	}
}
MOTION
Frames: 15
Frame Time: 0.008342
 -4.2043 -121.5931 23.8140 -4.3334 -9.3584 152.4320 3.0671 -1.3725 -0.2809 0.0797 -0.1263 0.0021 12.1190 -0.0208 -0.6786 -3.1401 -2.2543 -0.0610 -19.3634 -6.6551 -9.4623 9.7300 -2.8766 -9.1271 5.8327 -18.8428 4.9525 4.9009 -54.2048 3.0584 -0.0001 0.0001 108.6364 -2.1853 13.9423 1.7740 0.0000 -0.0000 -0.0000 0.0000 -0.0000 0.0000 0.3194 12.8026 -10.2077 25.3866 33.1480 -40.4289 -0.0001 -0.0001 -87.3673 -12.1355 -14.2251 -4.2513 -0.0000 0.0000 0.0000 -0.0000 -0.0000 0.0000 -2.9240 -15.1431 -3.1266 7.1105 0.0000 0.0000 -6.1876 7.1216 8.1467 6.4837 0.0000 0.0000 -8.0508 -30.7405 35.9417 13.1478 0.0000 0.0000 3.0953 11.0170 8.0797 -5.0095 0.0000 -0.0000
 -4.1902 -121.5950 23.8100 -4.3199 -9.4380 152.4836 3.0372 -1.4409 -0.2813 0.0687 -0.1451 0.0007 12.1289 -0.0053 -0.6643 -3.1264 -2.2345 -0.0718 -19.3404 -6.6634 -9.4885 9.7601 -2.9033 -9.2158 5.7958 -18.7614 5.0088 4.9238 -54.2637 3.2695 -0.0001 0.0001 108.7457 -1.9783 13.6180 1.5551 -0.0000 0.0000 0.0000 0.0000 0.0000 -0.0000 0.3044 12.8402 -10.2460 25.9670 32.9549 -40.7787 -0.0001 -0.0001 -87.8652 -12.1684 -14.2245 -4.2245 -0.0000 0.0000 -0.0000 -0.0000 -0.0000 0.0000 -2.8526 -15.2481 -3.1032 7.0751 0.0000 0.0000 -6.1806 7.1777 8.0765 6.4796 0.0000 0.0000 -8.0781 -30.8931 36.0354 13.2734 0.0000 0.0000 3.1017 10.9891 7.8895 -4.9856 0.0000 -0.0000
 -4.1726 -121.5981 23.8052 -4.2966 -9.5299 152.5440 3.0056 -1.5194 -0.2779 0.0565 -0.1674 -0.0020 12.1362 0.0167 -0.6409 -3.1120 -2.2098 -0.0786 -19.3123 -6.6659 -9.5271 9.7982 -2.9325 -9.3296 5.7400 -18.6773 5.0702 4.9965 -54.3069 3.5827 -0.0001 0.0001 108.8694 -1.7317 13.2165 1.2910 -0.0000 -0.0000 0.0000 -0.0000 0.0000 0.0000 0.2762 12.8822 -10.2805 26.7589 32.6797 -41.2928 -0.0001 -0.0001 -88.4789 -12.2293 -14.2716 -4.1448 0.0000 -0.0000 0.0000 -0.0000 -0.0000 0.0000 -2.7676 -15.3708 -3.0717 7.0418 0.0000 0.0000 -6.1802 7.2534 7.9931 6.4833 0.0000 0.0000 -8.0975 -31.0658 36.1353 13.4057 0.0000 0.0000 3.1142 10.9647 7.6804 -4.9585 0.0000 -0.0000
 -4.1513 -121.6026 23.7995 -4.2680 -9.6338 152.6151 2.9689 -1.6078 -0.2742 0.0419 -0.1922 -0.0041 12.1421 0.0432 -0.6044 -3.0975 -2.1836 -0.0839 -19.2787 -6.6571 -9.5795 9.8427 -2.9597 -9.4658 5.6681 -18.5957 5.1329 5.1314 -54.3237 4.0103 -0.0001 0.0001 108.9978 -1.4573 12.7466 0.9921 -0.0000 0.0000 -0.0000 -0.0000 0.0000 -0.0000 0.2323 12.9269 -10.3091 27.7647 32.3130 -41.9833 -0.0001 -0.0001 -89.1870 -12.2922 -14.3961 -4.0045 0.0000 -0.0000 -0.0000 -0.0000 -0.0000 0.0000 -2.6725 -15.5126 -3.0394 7.0072 0.0000 0.0000 -6.1842 7.3466 7.9012 6.4953 0.0000 0.0000 -8.1145 -31.2571 36.2244 13.5395 0.0000 0.0000 3.1315 10.9493 7.4661 -4.9312 0.0000 -0.0000
 -4.1270 -121.6083 23.7932 -4.2311 -9.7457 152.7001 2.9302 -1.6998 -0.2706 0.0265 -0.2167 -0.0049 12.1441 0.0684 -0.5608 -3.0824 -2.1575 -0.0810 -19.2394 -6.6320 -9.6461 9.8921 -2.9823 -9.6203 5.5819 -18.5267 5.1935 5.3307 -54.2990 4.5478 -0.0001 0.0001 109.1224 -1.1648 12.2180 0.6682 0.0000 0.0000 -0.0000 0.0000 0.0000 -0.0000 0.1737 12.9701 -10.3337 28.9706 31.8510 -42.8514 -0.0001 -0.0001 -89.9580 -12.3188 -14.6316 -3.8016 0.0000 -0.0000 0.0000 -0.0000 -0.0000 0.0000 -2.5680 -15.6670 -3.0102 6.9732 0.0000 0.0000 -6.1937 7.4542 7.8023 6.5161 0.0000 0.0000 -8.1242 -31.4546 36.2871 13.6607 0.0000 0.0000 3.1551 10.9477 7.2628 -4.9037 0.0000 -0.0000
 -4.1004 -121.6150 23.7867 -4.1875 -9.8556 152.7980 2.8859 -1.7855 -0.2672 0.0082 -0.2400 -0.0030 12.1462 0.0875 -0.5103 -3.0666 -2.1319 -0.0727 -19.1965 -6.5869 -9.7244 9.9429 -2.9981 -9.7873 5.4859 -18.4825 5.2515 5.5903 -54.2179 5.1830 -0.0001 0.0001 109.2340 -0.8665 11.6466 0.3323 -0.0000 0.0000 0.0000 0.0000 -0.0000 0.0000 0.1017 13.0101 -10.3513 30.3473 31.2906 -43.8871 -0.0001 -0.0001 -90.7531 -12.2631 -15.0094 -3.5376 -0.0000 -0.0000 0.0000 0.0000 0.0000 0.0000 -2.4624 -15.8234 -2.9892 6.9433 0.0000 0.0000 -6.2109 7.5721 7.7015 6.5457 0.0000 0.0000 -8.1252 -31.6398 36.3078 13.7512 0.0000 0.0000 3.1876 10.9641 7.0917 -4.8769 0.0000 -0.0000
 -4.0721 -121.6224 23.7803 -4.1375 -9.9592 152.9115 2.8338 -1.8579 -0.2655 -0.0139 -0.2638 -0.0020 12.1542 0.0996 -0.4527 -3.0516 -2.1097 -0.0582 -19.1506 -6.5177 -9.8102 9.9923 -3.0038 -9.9636 5.3864 -18.4698 5.3048 5.9000 -54.0742 5.8973 -0.0001 0.0001 109.3240 -0.5708 11.0497 -0.0030 -0.0000 0.0000 0.0000 0.0000 -0.0000 0.0000 0.0254 13.0448 -10.3641 31.8447 30.6352 -45.0645 -0.0001 -0.0001 -91.5329 -12.0785 -15.5546 -3.2178 0.0000 -0.0000 0.0000 0.0000 0.0000 0.0000 -2.3541 -15.9749 -2.9910 6.9097 0.0000 0.0000 -6.2333 7.6950 7.6117 6.5821 0.0000 0.0000 -8.1150 -31.8018 36.2834 13.7980 0.0000 0.0000 3.2322 10.9996 6.9569 -4.8527 0.0000 -0.0000
 -4.0428 -121.6308 23.7741 -4.0977 -10.0502 153.0374 2.7620 -1.9176 -0.2635 -0.0366 -0.2836 0.0003 12.1638 0.0960 -0.3936 -3.0364 -2.0904 -0.0376 -19.1026 -6.4227 -9.9013 10.0363 -2.9984 -10.1410 5.2870 -18.4960 5.3507 6.2479 -53.8642 6.6659 -0.0001 0.0001 109.3864 -0.2826 10.4476 -0.3277 -0.0000 0.0000 -0.0000 -0.0000 -0.0000 0.0000 -0.0485 13.0706 -10.3743 33.4078 29.8998 -46.3468 -0.0001 -0.0001 -92.2607 -11.7195 -16.2824 -2.8500 -0.0000 0.0000 -0.0000 0.0000 -0.0000 0.0000 -2.2694 -16.1230 -3.0010 6.8841 0.0000 0.0000 -6.2586 7.8173 7.5153 6.6214 0.0000 0.0000 -8.1147 -31.9390 36.1909 13.7996 0.0000 0.0000 3.2857 11.0583 6.8801 -4.8329 0.0000 -0.0000
 -4.0132 -121.6385 23.7688 -4.0355 -10.1316 153.1803 2.6995 -1.9507 -0.2616 -0.0614 -0.3039 0.0012 12.1801 0.0794 -0.3345 -3.0207 -2.0754 -0.0125 -19.0528 -6.3002 -9.9920 10.0720 -2.9807 -10.3144 5.1941 -18.5605 5.3895 6.6158 -53.5963 7.4582 -0.0001 0.0001 109.4184 -0.0030 9.8598 -0.6320 0.0000 -0.0000 0.0000 -0.0000 -0.0000 0.0000 -0.1145 13.0852 -10.3823 34.9814 29.1079 -47.6899 -0.0001 -0.0001 -92.9065 -11.1513 -17.1977 -2.4410 -0.0000 -0.0000 -0.0000 -0.0000 0.0000 -0.0000 -2.1646 -16.2513 -3.0339 6.8499 0.0000 0.0000 -6.2861 7.9329 7.4317 6.6607 0.0000 0.0000 -8.0744 -32.0279 36.0461 13.7305 0.0000 0.0000 3.3557 11.1393 6.8585 -4.8186 0.0000 -0.0000
 -3.9838 -121.6461 23.7642 -3.9752 -10.1999 153.3406 2.6291 -1.9654 -0.2653 -0.0910 -0.3178 0.0048 12.2059 0.0414 -0.2817 -3.0047 -2.0645 0.0152 -19.0028 -6.1516 -10.0765 10.0968 -2.9494 -10.4786 5.1116 -18.6619 5.4228 6.9833 -53.2827 8.2423 -0.0001 0.0001 109.4196 0.2713 9.3037 -0.9099 0.0000 0.0000 -0.0000 0.0000 -0.0000 0.0000 -0.1673 13.0901 -10.3882 36.5090 28.2875 -49.0436 -0.0001 -0.0001 -93.4500 -10.3532 -18.2929 -1.9957 0.0000 0.0000 -0.0000 0.0000 0.0000 0.0000 -2.0662 -16.3668 -3.0961 6.8070 0.0000 0.0000 -6.3104 8.0371 7.3606 6.6956 0.0000 0.0000 -8.0282 -32.0795 35.8438 13.6006 0.0000 0.0000 3.4410 11.2385 6.8874 -4.8122 0.0000 -0.0000
 -3.9553 -121.6532 23.7606 -3.9108 -10.2475 153.5114 2.5543 -1.9519 -0.2668 -0.1228 -0.3322 0.0061 12.2412 -0.0117 -0.2365 -2.9879 -2.0555 0.0442 -18.9552 -5.9801 -10.1503 10.1076 -2.9053 -10.6295 5.0406 -18.7997 5.4499 7.3322 -52.9370 8.9896 -0.0001 0.0001 109.3930 0.5429 8.7928 -1.1580 -0.0000 0.0000 -0.0000 0.0000 -0.0000 0.0000 -0.1998 13.0861 -10.3952 37.9399 27.4757 -50.3568 -0.0001 -0.0001 -93.8806 -9.3224 -19.5481 -1.5166 0.0000 0.0000 0.0000 0.0000 -0.0000 0.0000 -1.9752 -16.4583 -3.1712 6.7639 0.0000 0.0000 -6.3342 8.1281 7.2924 6.7229 0.0000 0.0000 -7.9616 -32.0788 35.5938 13.3980 0.0000 0.0000 3.5456 11.3525 6.9726 -4.8148 0.0000 -0.0000
 -3.9281 -121.6605 23.7578 -3.8631 -10.2720 153.6902 2.4605 -1.9189 -0.2698 -0.1603 -0.3434 0.0075 12.2892 -0.0814 -0.2041 -2.9710 -2.0490 0.0727 -18.9125 -5.7895 -10.2076 10.1022 -2.8485 -10.7652 4.9812 -18.9649 5.4736 7.6478 -52.5820 9.6771 -0.0001 0.0001 109.3421 0.8196 8.3410 -1.3731 0.0000 -0.0000 0.0000 0.0000 0.0000 -0.0000 -0.2104 13.0805 -10.4008 39.2359 26.7069 -51.5820 -0.0001 -0.0001 -94.1999 -8.0775 -20.9276 -1.0016 -0.0000 0.0000 0.0000 -0.0000 -0.0000 0.0000 -1.9145 -16.5328 -3.2613 6.7214 0.0000 0.0000 -6.3537 8.2048 7.2261 6.7396 0.0000 0.0000 -7.9034 -32.0387 35.3047 13.1361 0.0000 0.0000 3.6697 11.4737 7.0993 -4.8281 0.0000 -0.0000
 -3.9022 -121.6668 23.7559 -3.8055 -10.2848 153.8791 2.3747 -1.8675 -0.2753 -0.1979 -0.3537 0.0076 12.3451 -0.1618 -0.1827 -2.9530 -2.0428 0.0965 -18.8733 -5.5841 -10.2430 10.0807 -2.7820 -10.8851 4.9361 -19.1458 5.4957 7.9174 -52.2437 10.2884 -0.0001 0.0001 109.2732 1.1035 7.9505 -1.5548 -0.0000 -0.0000 -0.0000 0.0000 -0.0000 -0.0000 -0.1949 13.0741 -10.4008 40.3718 26.0184 -52.6879 -0.0001 -0.0001 -94.4138 -6.6562 -22.3906 -0.4524 -0.0000 -0.0000 0.0000 -0.0000 -0.0000 0.0000 -1.8437 -16.5876 -3.3666 6.6659 0.0000 0.0000 -6.3662 8.2662 7.1677 6.7433 0.0000 0.0000 -7.8147 -31.9569 34.9934 12.8095 0.0000 0.0000 3.8158 11.5994 7.2586 -4.8543 0.0000 -0.0000
 -3.8776 -121.6734 23.7546 -3.7647 -10.2808 154.0702 2.2775 -1.8076 -0.2815 -0.2406 -0.3632 0.0081 12.4106 -0.2493 -0.1740 -2.9344 -2.0348 0.1120 -18.8412 -5.3716 -10.2557 10.0425 -2.7069 -10.9879 4.9043 -19.3370 5.5207 8.1282 -51.9391 10.8095 -0.0001 0.0001 109.1939 1.3945 7.6221 -1.7049 0.0000 0.0000 -0.0000 0.0000 0.0000 -0.0000 -0.1577 13.0723 -10.3895 41.3373 25.4405 -53.6489 -0.0001 -0.0001 -94.5343 -5.1143 -23.8830 0.1244 0.0000 -0.0000 0.0000 0.0000 -0.0000 0.0000 -1.7981 -16.6317 -3.4755 6.6083 0.0000 0.0000 -6.3707 8.3155 7.1059 6.7330 0.0000 0.0000 -7.7316 -31.8503 34.6773 12.4368 0.0000 0.0000 3.9841 11.7207 7.4304 -4.8943 0.0000 -0.0000
 -3.8539 -121.6795 23.7538 -3.7192 -10.2724 154.2644 2.1928 -1.7429 -0.2877 -0.2849 -0.3760 0.0050 12.4811 -0.3354 -0.1756 -2.9149 -2.0236 0.1203 -18.8154 -5.1563 -10.2443 9.9888 -2.6263 -11.0770 4.8827 -19.5255 5.5450 8.2843 -51.6890 11.2448 -0.0001 0.0001 109.1089 1.6927 7.3559 -1.8239 -0.0000 -0.0000 -0.0000 -0.0000 -0.0000 -0.0000 -0.0976 13.0771 -10.3665 42.1280 25.0028 -54.4497 -0.0001 -0.0001 -94.5805 -3.5255 -25.3372 0.7194 0.0000 0.0000 -0.0000 0.0000 -0.0000 0.0000 -1.7440 -16.6671 -3.5842 6.5379 0.0000 0.0000 -6.3652 8.3548 7.0424 6.7094 0.0000 0.0000 -7.6242 -31.7235 34.3737 12.0207 0.0000 0.0000 4.1749 11.8359 7.6018 -4.9493 0.0000 -0.0000
